<svg xmlns="http://www.w3.org/2000/svg" viewBox="23 23 120 110" width="300" height="275">
  <ellipse style="fill:#fff" cx="83.75" cy="84.554" rx="58.553" ry="47.798"/>
  <circle cx="63.622" cy="97.801" r="4.933"/>
  <circle cx="105.066" cy="97.801" r="4.932"/>
  <path d="M128.822 53.13c-18.075-16.957-43.007-16.489-45.264-16.403-2.256-.086-25.833-.554-43.908 16.403-7.185 6.74-12.887 15.366-14.381 25.248-1.57 10.383 1.43 21.668 7.599 30.113a50 50 0 0 0 5.271 6.073 59 59 0 0 0 3.438 3.124 64 64 0 0 0 2.016 1.627c.281.218 2.008 1.223 2.023 1.51 0 0-2.64-47.462 17.005-47.462 19.643 0 15.253 32.979 15.253 32.979h11.37s-4.39-32.979 15.253-32.979c19.645 0 17.387 47.421 17.387 47.421 7.604-5.398 14.24-12.521 17.674-21.301 1.724-4.405 2.772-9.4 3.181-14.119a34.5 34.5 0 0 0-.562-9.824c-1.778-8.753-6.912-16.366-13.355-22.41"/>
  <path style="fill:#f80" d="M92.078 107.806c0 1.715-3.733 6.826-8.338 6.826s-8.339-5.111-8.339-6.826c0-1.716 3.733-3.106 8.339-3.106s8.338 1.39 8.338 3.106"/>
</svg>
